<mxfile host="app.diagrams.net" agent="Mozilla/5.0 (Windows NT 10.0; Win64; x64) AppleWebKit/537.36 (KHTML, like Gecko) Chrome/134.0.0.0 Safari/537.36 Edg/134.0.0.0" version="26.2.4">
  <diagram id="C5RBs43oDa-KdzZeNtuy" name="Page-1">
    <mxGraphModel dx="1616" dy="1068" grid="1" gridSize="10" guides="0" tooltips="1" connect="1" arrows="1" fold="1" page="0" pageScale="1" pageWidth="827" pageHeight="1169" math="0" shadow="0">
      <root>
        <mxCell id="WIyWlLk6GJQsqaUBKTNV-0" />
        <mxCell id="WIyWlLk6GJQsqaUBKTNV-1" parent="WIyWlLk6GJQsqaUBKTNV-0" />
        <mxCell id="x6ypGN8X6-f26hYu9-0w-0" value="控制层" style="rounded=0;whiteSpace=wrap;html=1;" parent="WIyWlLk6GJQsqaUBKTNV-1" vertex="1">
          <mxGeometry x="82" y="260" width="96" height="53" as="geometry" />
        </mxCell>
        <mxCell id="x6ypGN8X6-f26hYu9-0w-9" value="&lt;font style=&quot;font-size: 18px;&quot;&gt;客户层&lt;/font&gt;" style="rounded=0;whiteSpace=wrap;html=1;" parent="WIyWlLk6GJQsqaUBKTNV-1" vertex="1">
          <mxGeometry x="-110" y="90" width="120" height="60" as="geometry" />
        </mxCell>
        <mxCell id="x6ypGN8X6-f26hYu9-0w-10" value="" style="endArrow=none;html=1;rounded=0;" parent="WIyWlLk6GJQsqaUBKTNV-1" edge="1">
          <mxGeometry width="50" height="50" relative="1" as="geometry">
            <mxPoint x="40" y="390" as="sourcePoint" />
            <mxPoint x="40" y="-10" as="targetPoint" />
          </mxGeometry>
        </mxCell>
        <mxCell id="x6ypGN8X6-f26hYu9-0w-12" value="&lt;font style=&quot;font-size: 18px;&quot;&gt;控制层&lt;/font&gt;" style="rounded=0;whiteSpace=wrap;html=1;" parent="WIyWlLk6GJQsqaUBKTNV-1" vertex="1">
          <mxGeometry x="70" y="90" width="120" height="60" as="geometry" />
        </mxCell>
        <mxCell id="x6ypGN8X6-f26hYu9-0w-13" value="" style="endArrow=none;html=1;rounded=0;" parent="WIyWlLk6GJQsqaUBKTNV-1" edge="1">
          <mxGeometry width="50" height="50" relative="1" as="geometry">
            <mxPoint x="220" y="390" as="sourcePoint" />
            <mxPoint x="220" y="-10" as="targetPoint" />
          </mxGeometry>
        </mxCell>
        <mxCell id="x6ypGN8X6-f26hYu9-0w-14" value="" style="endArrow=none;html=1;rounded=0;" parent="WIyWlLk6GJQsqaUBKTNV-1" edge="1">
          <mxGeometry width="50" height="50" relative="1" as="geometry">
            <mxPoint x="510" y="390" as="sourcePoint" />
            <mxPoint x="510" y="-10" as="targetPoint" />
          </mxGeometry>
        </mxCell>
        <mxCell id="x6ypGN8X6-f26hYu9-0w-15" value="&lt;span style=&quot;font-size: 18px;&quot;&gt;业务层&lt;/span&gt;" style="rounded=0;whiteSpace=wrap;html=1;" parent="WIyWlLk6GJQsqaUBKTNV-1" vertex="1">
          <mxGeometry x="310" y="90" width="120" height="60" as="geometry" />
        </mxCell>
        <mxCell id="x6ypGN8X6-f26hYu9-0w-16" value="&lt;span style=&quot;font-size: 18px;&quot;&gt;数据层&lt;/span&gt;" style="rounded=0;whiteSpace=wrap;html=1;" parent="WIyWlLk6GJQsqaUBKTNV-1" vertex="1">
          <mxGeometry x="580" y="90" width="120" height="60" as="geometry" />
        </mxCell>
        <mxCell id="x6ypGN8X6-f26hYu9-0w-22" value="&lt;span style=&quot;font-size: 18px;&quot;&gt;区块链层&lt;/span&gt;" style="rounded=0;whiteSpace=wrap;html=1;" parent="WIyWlLk6GJQsqaUBKTNV-1" vertex="1">
          <mxGeometry x="834" y="90" width="120" height="60" as="geometry" />
        </mxCell>
        <mxCell id="x6ypGN8X6-f26hYu9-0w-23" value="" style="endArrow=none;html=1;rounded=0;" parent="WIyWlLk6GJQsqaUBKTNV-1" edge="1">
          <mxGeometry width="50" height="50" relative="1" as="geometry">
            <mxPoint x="770" y="390" as="sourcePoint" />
            <mxPoint x="770" y="-10" as="targetPoint" />
          </mxGeometry>
        </mxCell>
        <mxCell id="x6ypGN8X6-f26hYu9-0w-24" value="客户层" style="rounded=0;whiteSpace=wrap;html=1;" parent="WIyWlLk6GJQsqaUBKTNV-1" vertex="1">
          <mxGeometry x="-98" y="254" width="96" height="53" as="geometry" />
        </mxCell>
        <mxCell id="x6ypGN8X6-f26hYu9-0w-25" value="业务过程" style="rounded=0;whiteSpace=wrap;html=1;" parent="WIyWlLk6GJQsqaUBKTNV-1" vertex="1">
          <mxGeometry x="260" y="260" width="96" height="53" as="geometry" />
        </mxCell>
        <mxCell id="x6ypGN8X6-f26hYu9-0w-26" value="" style="endArrow=classic;startArrow=classic;html=1;rounded=0;" parent="WIyWlLk6GJQsqaUBKTNV-1" edge="1">
          <mxGeometry width="50" height="50" relative="1" as="geometry">
            <mxPoint x="-100" y="400" as="sourcePoint" />
            <mxPoint x="20" y="400" as="targetPoint" />
          </mxGeometry>
        </mxCell>
        <mxCell id="x6ypGN8X6-f26hYu9-0w-27" value="&lt;font style=&quot;font-size: 14px;&quot;&gt;View&lt;/font&gt;" style="edgeLabel;html=1;align=center;verticalAlign=middle;resizable=0;points=[];" parent="x6ypGN8X6-f26hYu9-0w-26" vertex="1" connectable="0">
          <mxGeometry x="0.0755" y="1" relative="1" as="geometry">
            <mxPoint as="offset" />
          </mxGeometry>
        </mxCell>
        <mxCell id="x6ypGN8X6-f26hYu9-0w-28" value="" style="endArrow=classic;startArrow=classic;html=1;rounded=0;" parent="WIyWlLk6GJQsqaUBKTNV-1" edge="1">
          <mxGeometry width="50" height="50" relative="1" as="geometry">
            <mxPoint x="45" y="400" as="sourcePoint" />
            <mxPoint x="215" y="400" as="targetPoint" />
          </mxGeometry>
        </mxCell>
        <mxCell id="x6ypGN8X6-f26hYu9-0w-34" value="&lt;font style=&quot;font-size: 14px;&quot;&gt;Controller&lt;/font&gt;" style="edgeLabel;html=1;align=center;verticalAlign=middle;resizable=0;points=[];" parent="x6ypGN8X6-f26hYu9-0w-28" vertex="1" connectable="0">
          <mxGeometry x="0.0489" y="-2" relative="1" as="geometry">
            <mxPoint x="-4" as="offset" />
          </mxGeometry>
        </mxCell>
        <mxCell id="x6ypGN8X6-f26hYu9-0w-30" value="" style="endArrow=classic;startArrow=classic;html=1;rounded=0;" parent="WIyWlLk6GJQsqaUBKTNV-1" edge="1">
          <mxGeometry width="50" height="50" relative="1" as="geometry">
            <mxPoint x="240" y="400" as="sourcePoint" />
            <mxPoint x="991" y="400" as="targetPoint" />
          </mxGeometry>
        </mxCell>
        <mxCell id="x6ypGN8X6-f26hYu9-0w-31" value="&lt;span style=&quot;font-size: 14px;&quot;&gt;Model&lt;/span&gt;" style="edgeLabel;html=1;align=center;verticalAlign=middle;resizable=0;points=[];" parent="x6ypGN8X6-f26hYu9-0w-30" vertex="1" connectable="0">
          <mxGeometry x="0.0755" y="1" relative="1" as="geometry">
            <mxPoint as="offset" />
          </mxGeometry>
        </mxCell>
        <mxCell id="x6ypGN8X6-f26hYu9-0w-36" value="数据访问层" style="rounded=0;whiteSpace=wrap;html=1;" parent="WIyWlLk6GJQsqaUBKTNV-1" vertex="1">
          <mxGeometry x="530" y="260" width="96" height="53" as="geometry" />
        </mxCell>
        <mxCell id="x6ypGN8X6-f26hYu9-0w-37" value="数据对象" style="rounded=0;whiteSpace=wrap;html=1;" parent="WIyWlLk6GJQsqaUBKTNV-1" vertex="1">
          <mxGeometry x="660" y="260" width="96" height="53" as="geometry" />
        </mxCell>
        <mxCell id="x6ypGN8X6-f26hYu9-0w-38" value="业务模型" style="rounded=0;whiteSpace=wrap;html=1;" parent="WIyWlLk6GJQsqaUBKTNV-1" vertex="1">
          <mxGeometry x="390" y="260" width="96" height="53" as="geometry" />
        </mxCell>
        <mxCell id="x6ypGN8X6-f26hYu9-0w-39" value="智能合约" style="rounded=0;whiteSpace=wrap;html=1;" parent="WIyWlLk6GJQsqaUBKTNV-1" vertex="1">
          <mxGeometry x="794" y="260" width="96" height="53" as="geometry" />
        </mxCell>
        <mxCell id="x6ypGN8X6-f26hYu9-0w-40" value="区块链节点" style="rounded=0;whiteSpace=wrap;html=1;" parent="WIyWlLk6GJQsqaUBKTNV-1" vertex="1">
          <mxGeometry x="911" y="260" width="96" height="53" as="geometry" />
        </mxCell>
        <mxCell id="x6ypGN8X6-f26hYu9-0w-64" value="控制层" style="rounded=0;whiteSpace=wrap;html=1;fontSize=14;" parent="WIyWlLk6GJQsqaUBKTNV-1" vertex="1">
          <mxGeometry x="214" y="898" width="96" height="53" as="geometry" />
        </mxCell>
        <mxCell id="x6ypGN8X6-f26hYu9-0w-65" value="&lt;font style=&quot;font-size: 18px;&quot;&gt;客户层&lt;/font&gt;" style="rounded=0;whiteSpace=wrap;html=1;" parent="WIyWlLk6GJQsqaUBKTNV-1" vertex="1">
          <mxGeometry x="-89" y="734" width="120" height="60" as="geometry" />
        </mxCell>
        <mxCell id="x6ypGN8X6-f26hYu9-0w-66" value="" style="endArrow=none;html=1;rounded=0;" parent="WIyWlLk6GJQsqaUBKTNV-1" edge="1">
          <mxGeometry width="50" height="50" relative="1" as="geometry">
            <mxPoint x="61" y="1034" as="sourcePoint" />
            <mxPoint x="61" y="634" as="targetPoint" />
          </mxGeometry>
        </mxCell>
        <mxCell id="x6ypGN8X6-f26hYu9-0w-67" value="&lt;font style=&quot;font-size: 18px;&quot;&gt;应用服务层&lt;/font&gt;" style="rounded=0;whiteSpace=wrap;html=1;" parent="WIyWlLk6GJQsqaUBKTNV-1" vertex="1">
          <mxGeometry x="178" y="730" width="120" height="60" as="geometry" />
        </mxCell>
        <mxCell id="x6ypGN8X6-f26hYu9-0w-68" value="" style="endArrow=none;html=1;rounded=0;" parent="WIyWlLk6GJQsqaUBKTNV-1" edge="1">
          <mxGeometry width="50" height="50" relative="1" as="geometry">
            <mxPoint x="435" y="1037" as="sourcePoint" />
            <mxPoint x="435" y="637" as="targetPoint" />
          </mxGeometry>
        </mxCell>
        <mxCell id="x6ypGN8X6-f26hYu9-0w-71" value="&lt;span style=&quot;font-size: 18px;&quot;&gt;数据层&lt;/span&gt;" style="rounded=0;whiteSpace=wrap;html=1;" parent="WIyWlLk6GJQsqaUBKTNV-1" vertex="1">
          <mxGeometry x="530" y="734" width="120" height="60" as="geometry" />
        </mxCell>
        <mxCell id="x6ypGN8X6-f26hYu9-0w-72" value="&lt;span style=&quot;font-size: 18px;&quot;&gt;区块链层&lt;/span&gt;" style="rounded=0;whiteSpace=wrap;html=1;" parent="WIyWlLk6GJQsqaUBKTNV-1" vertex="1">
          <mxGeometry x="806" y="737" width="120" height="60" as="geometry" />
        </mxCell>
        <mxCell id="x6ypGN8X6-f26hYu9-0w-73" value="" style="endArrow=none;html=1;rounded=0;" parent="WIyWlLk6GJQsqaUBKTNV-1" edge="1">
          <mxGeometry width="50" height="50" relative="1" as="geometry">
            <mxPoint x="742" y="1037" as="sourcePoint" />
            <mxPoint x="742" y="637" as="targetPoint" />
          </mxGeometry>
        </mxCell>
        <mxCell id="x6ypGN8X6-f26hYu9-0w-74" value="&lt;font&gt;客户层&lt;/font&gt;" style="rounded=0;whiteSpace=wrap;html=1;fontSize=14;" parent="WIyWlLk6GJQsqaUBKTNV-1" vertex="1">
          <mxGeometry x="-77" y="898" width="96" height="53" as="geometry" />
        </mxCell>
        <mxCell id="x6ypGN8X6-f26hYu9-0w-76" value="" style="endArrow=classic;startArrow=classic;html=1;rounded=0;" parent="WIyWlLk6GJQsqaUBKTNV-1" edge="1">
          <mxGeometry width="50" height="50" relative="1" as="geometry">
            <mxPoint x="-79" y="1044" as="sourcePoint" />
            <mxPoint x="41" y="1044" as="targetPoint" />
          </mxGeometry>
        </mxCell>
        <mxCell id="x6ypGN8X6-f26hYu9-0w-77" value="&lt;font style=&quot;font-size: 14px;&quot;&gt;View&lt;/font&gt;" style="edgeLabel;html=1;align=center;verticalAlign=middle;resizable=0;points=[];" parent="x6ypGN8X6-f26hYu9-0w-76" vertex="1" connectable="0">
          <mxGeometry x="0.0755" y="1" relative="1" as="geometry">
            <mxPoint as="offset" />
          </mxGeometry>
        </mxCell>
        <mxCell id="x6ypGN8X6-f26hYu9-0w-78" value="" style="endArrow=classic;startArrow=classic;html=1;rounded=0;" parent="WIyWlLk6GJQsqaUBKTNV-1" edge="1">
          <mxGeometry width="50" height="50" relative="1" as="geometry">
            <mxPoint x="70" y="1047" as="sourcePoint" />
            <mxPoint x="310" y="1047" as="targetPoint" />
          </mxGeometry>
        </mxCell>
        <mxCell id="x6ypGN8X6-f26hYu9-0w-79" value="&lt;font style=&quot;font-size: 14px;&quot;&gt;Controller&lt;/font&gt;" style="edgeLabel;html=1;align=center;verticalAlign=middle;resizable=0;points=[];" parent="x6ypGN8X6-f26hYu9-0w-78" vertex="1" connectable="0">
          <mxGeometry x="0.0489" y="-2" relative="1" as="geometry">
            <mxPoint x="-6" as="offset" />
          </mxGeometry>
        </mxCell>
        <mxCell id="x6ypGN8X6-f26hYu9-0w-80" value="" style="endArrow=classic;startArrow=classic;html=1;rounded=0;" parent="WIyWlLk6GJQsqaUBKTNV-1" edge="1">
          <mxGeometry width="50" height="50" relative="1" as="geometry">
            <mxPoint x="330" y="1047" as="sourcePoint" />
            <mxPoint x="963" y="1047" as="targetPoint" />
          </mxGeometry>
        </mxCell>
        <mxCell id="x6ypGN8X6-f26hYu9-0w-81" value="&lt;span style=&quot;font-size: 14px;&quot;&gt;Model&lt;/span&gt;" style="edgeLabel;html=1;align=center;verticalAlign=middle;resizable=0;points=[];" parent="x6ypGN8X6-f26hYu9-0w-80" vertex="1" connectable="0">
          <mxGeometry x="0.0755" y="1" relative="1" as="geometry">
            <mxPoint as="offset" />
          </mxGeometry>
        </mxCell>
        <mxCell id="x6ypGN8X6-f26hYu9-0w-82" value="数据访问层" style="rounded=0;whiteSpace=wrap;html=1;fontSize=14;" parent="WIyWlLk6GJQsqaUBKTNV-1" vertex="1">
          <mxGeometry x="456" y="898" width="96" height="53" as="geometry" />
        </mxCell>
        <mxCell id="x6ypGN8X6-f26hYu9-0w-83" value="数据对象" style="rounded=0;whiteSpace=wrap;html=1;fontSize=14;" parent="WIyWlLk6GJQsqaUBKTNV-1" vertex="1">
          <mxGeometry x="604" y="898" width="96" height="53" as="geometry" />
        </mxCell>
        <mxCell id="x6ypGN8X6-f26hYu9-0w-85" value="智能合约" style="rounded=0;whiteSpace=wrap;html=1;fontSize=14;" parent="WIyWlLk6GJQsqaUBKTNV-1" vertex="1">
          <mxGeometry x="818" y="898" width="96" height="53" as="geometry" />
        </mxCell>
        <mxCell id="x6ypGN8X6-f26hYu9-0w-88" value="&lt;font&gt;路由层&lt;/font&gt;" style="rounded=0;whiteSpace=wrap;html=1;fontSize=14;" parent="WIyWlLk6GJQsqaUBKTNV-1" vertex="1">
          <mxGeometry x="94" y="898" width="96" height="53" as="geometry" />
        </mxCell>
        <mxCell id="x6ypGN8X6-f26hYu9-0w-89" value="业务服务层" style="rounded=0;whiteSpace=wrap;html=1;fontSize=14;" parent="WIyWlLk6GJQsqaUBKTNV-1" vertex="1">
          <mxGeometry x="322" y="898" width="96" height="53" as="geometry" />
        </mxCell>
        <mxCell id="x6ypGN8X6-f26hYu9-0w-111" value="&lt;font style=&quot;font-size: 18px;&quot;&gt;客户层&lt;/font&gt;" style="rounded=0;whiteSpace=wrap;html=1;" parent="WIyWlLk6GJQsqaUBKTNV-1" vertex="1">
          <mxGeometry x="-98" y="1310" width="120" height="60" as="geometry" />
        </mxCell>
        <mxCell id="x6ypGN8X6-f26hYu9-0w-112" value="" style="endArrow=none;html=1;rounded=0;" parent="WIyWlLk6GJQsqaUBKTNV-1" edge="1">
          <mxGeometry width="50" height="50" relative="1" as="geometry">
            <mxPoint x="52" y="1610" as="sourcePoint" />
            <mxPoint x="52" y="1210" as="targetPoint" />
          </mxGeometry>
        </mxCell>
        <mxCell id="x6ypGN8X6-f26hYu9-0w-113" value="&lt;font style=&quot;font-size: 18px;&quot;&gt;应用服务层&lt;/font&gt;" style="rounded=0;whiteSpace=wrap;html=1;" parent="WIyWlLk6GJQsqaUBKTNV-1" vertex="1">
          <mxGeometry x="120" y="1306" width="120" height="60" as="geometry" />
        </mxCell>
        <mxCell id="x6ypGN8X6-f26hYu9-0w-114" value="" style="endArrow=none;html=1;rounded=0;" parent="WIyWlLk6GJQsqaUBKTNV-1" edge="1">
          <mxGeometry width="50" height="50" relative="1" as="geometry">
            <mxPoint x="320.82" y="1613" as="sourcePoint" />
            <mxPoint x="320.82" y="1213" as="targetPoint" />
          </mxGeometry>
        </mxCell>
        <mxCell id="x6ypGN8X6-f26hYu9-0w-115" value="&lt;span style=&quot;font-size: 18px;&quot;&gt;数据层&lt;/span&gt;" style="rounded=0;whiteSpace=wrap;html=1;" parent="WIyWlLk6GJQsqaUBKTNV-1" vertex="1">
          <mxGeometry x="418" y="1306" width="120" height="60" as="geometry" />
        </mxCell>
        <mxCell id="x6ypGN8X6-f26hYu9-0w-116" value="&lt;span style=&quot;font-size: 18px;&quot;&gt;区块链层&lt;/span&gt;" style="rounded=0;whiteSpace=wrap;html=1;" parent="WIyWlLk6GJQsqaUBKTNV-1" vertex="1">
          <mxGeometry x="668" y="1306" width="120" height="60" as="geometry" />
        </mxCell>
        <mxCell id="x6ypGN8X6-f26hYu9-0w-117" value="" style="endArrow=none;html=1;rounded=0;" parent="WIyWlLk6GJQsqaUBKTNV-1" edge="1">
          <mxGeometry width="50" height="50" relative="1" as="geometry">
            <mxPoint x="651.41" y="1613" as="sourcePoint" />
            <mxPoint x="651.41" y="1213" as="targetPoint" />
          </mxGeometry>
        </mxCell>
        <mxCell id="x6ypGN8X6-f26hYu9-0w-118" value="&lt;font style=&quot;font-size: 14px;&quot;&gt;React&lt;/font&gt;&lt;div&gt;&lt;font size=&quot;3&quot;&gt;Next框架&lt;/font&gt;&lt;/div&gt;" style="rounded=0;whiteSpace=wrap;html=1;" parent="WIyWlLk6GJQsqaUBKTNV-1" vertex="1">
          <mxGeometry x="-86" y="1474" width="96" height="56" as="geometry" />
        </mxCell>
        <mxCell id="x6ypGN8X6-f26hYu9-0w-119" value="" style="endArrow=classic;startArrow=classic;html=1;rounded=0;" parent="WIyWlLk6GJQsqaUBKTNV-1" edge="1">
          <mxGeometry width="50" height="50" relative="1" as="geometry">
            <mxPoint x="-88" y="1620" as="sourcePoint" />
            <mxPoint x="32" y="1620" as="targetPoint" />
          </mxGeometry>
        </mxCell>
        <mxCell id="x6ypGN8X6-f26hYu9-0w-120" value="&lt;font style=&quot;font-size: 14px;&quot;&gt;View&lt;/font&gt;" style="edgeLabel;html=1;align=center;verticalAlign=middle;resizable=0;points=[];" parent="x6ypGN8X6-f26hYu9-0w-119" vertex="1" connectable="0">
          <mxGeometry x="0.0755" y="1" relative="1" as="geometry">
            <mxPoint as="offset" />
          </mxGeometry>
        </mxCell>
        <mxCell id="x6ypGN8X6-f26hYu9-0w-121" value="" style="endArrow=classic;startArrow=classic;html=1;rounded=0;" parent="WIyWlLk6GJQsqaUBKTNV-1" edge="1">
          <mxGeometry width="50" height="50" relative="1" as="geometry">
            <mxPoint x="61" y="1623" as="sourcePoint" />
            <mxPoint x="260" y="1623" as="targetPoint" />
          </mxGeometry>
        </mxCell>
        <mxCell id="x6ypGN8X6-f26hYu9-0w-122" value="&lt;font style=&quot;font-size: 14px;&quot;&gt;Controller&lt;/font&gt;" style="edgeLabel;html=1;align=center;verticalAlign=middle;resizable=0;points=[];" parent="x6ypGN8X6-f26hYu9-0w-121" vertex="1" connectable="0">
          <mxGeometry x="0.0489" y="-2" relative="1" as="geometry">
            <mxPoint x="-6" as="offset" />
          </mxGeometry>
        </mxCell>
        <mxCell id="x6ypGN8X6-f26hYu9-0w-123" value="" style="endArrow=classic;startArrow=classic;html=1;rounded=0;" parent="WIyWlLk6GJQsqaUBKTNV-1" edge="1">
          <mxGeometry width="50" height="50" relative="1" as="geometry">
            <mxPoint x="280" y="1623" as="sourcePoint" />
            <mxPoint x="790" y="1623" as="targetPoint" />
          </mxGeometry>
        </mxCell>
        <mxCell id="x6ypGN8X6-f26hYu9-0w-124" value="&lt;span style=&quot;font-size: 14px;&quot;&gt;Model&lt;/span&gt;" style="edgeLabel;html=1;align=center;verticalAlign=middle;resizable=0;points=[];" parent="x6ypGN8X6-f26hYu9-0w-123" vertex="1" connectable="0">
          <mxGeometry x="0.0755" y="1" relative="1" as="geometry">
            <mxPoint as="offset" />
          </mxGeometry>
        </mxCell>
        <mxCell id="x6ypGN8X6-f26hYu9-0w-125" value="&lt;span style=&quot;color: rgb(64, 64, 64); font-family: DeepSeek-CJK-patch, Inter, system-ui, -apple-system, BlinkMacSystemFont, &amp;quot;Segoe UI&amp;quot;, Roboto, &amp;quot;Noto Sans&amp;quot;, Ubuntu, Cantarell, &amp;quot;Helvetica Neue&amp;quot;, Oxygen, &amp;quot;Open Sans&amp;quot;, sans-serif; font-size: 16.002px; text-align: left;&quot;&gt;Mongoose Model&lt;/span&gt;" style="rounded=0;whiteSpace=wrap;html=1;" parent="WIyWlLk6GJQsqaUBKTNV-1" vertex="1">
          <mxGeometry x="356" y="1473" width="96" height="53" as="geometry" />
        </mxCell>
        <mxCell id="x6ypGN8X6-f26hYu9-0w-126" value="&lt;span style=&quot;color: rgb(64, 64, 64); font-family: DeepSeek-CJK-patch, Inter, system-ui, -apple-system, BlinkMacSystemFont, &amp;quot;Segoe UI&amp;quot;, Roboto, &amp;quot;Noto Sans&amp;quot;, Ubuntu, Cantarell, &amp;quot;Helvetica Neue&amp;quot;, Oxygen, &amp;quot;Open Sans&amp;quot;, sans-serif; font-size: 16.002px; text-align: left;&quot;&gt;Mongoose Schema&lt;/span&gt;" style="rounded=0;whiteSpace=wrap;html=1;" parent="WIyWlLk6GJQsqaUBKTNV-1" vertex="1">
          <mxGeometry x="508" y="1474" width="96" height="53" as="geometry" />
        </mxCell>
        <mxCell id="x6ypGN8X6-f26hYu9-0w-127" value="&lt;font style=&quot;font-size: 14px;&quot;&gt;hardhat&lt;/font&gt;" style="rounded=0;whiteSpace=wrap;html=1;" parent="WIyWlLk6GJQsqaUBKTNV-1" vertex="1">
          <mxGeometry x="680" y="1468.5" width="96" height="53" as="geometry" />
        </mxCell>
        <mxCell id="x6ypGN8X6-f26hYu9-0w-128" value="&lt;font style=&quot;font-size: 14px;&quot;&gt;Express&lt;/font&gt;&lt;div&gt;&lt;font size=&quot;3&quot;&gt;路由&lt;/font&gt;&lt;/div&gt;&lt;div&gt;&lt;font size=&quot;3&quot;&gt;控制器&lt;/font&gt;&lt;/div&gt;&lt;div&gt;&lt;font size=&quot;3&quot;&gt;中间件&lt;/font&gt;&lt;/div&gt;" style="rounded=0;whiteSpace=wrap;html=1;" parent="WIyWlLk6GJQsqaUBKTNV-1" vertex="1">
          <mxGeometry x="113" y="1445" width="127" height="100" as="geometry" />
        </mxCell>
        <mxCell id="34PC_S3u4fPD3pMYHmbV-0" value="" style="image;points=[];aspect=fixed;html=1;align=center;shadow=0;dashed=0;image=img/lib/allied_telesis/computer_and_terminals/Personal_Computer_with_Server.svg;fontSize=16;" parent="WIyWlLk6GJQsqaUBKTNV-1" vertex="1">
          <mxGeometry x="-280" y="2250" width="140" height="140" as="geometry" />
        </mxCell>
        <mxCell id="34PC_S3u4fPD3pMYHmbV-1" value="" style="image;points=[];aspect=fixed;html=1;align=center;shadow=0;dashed=0;image=img/lib/allied_telesis/computer_and_terminals/Personal_Computer_with_Server.svg;fontSize=16;" parent="WIyWlLk6GJQsqaUBKTNV-1" vertex="1">
          <mxGeometry x="-2" y="2250" width="140" height="140" as="geometry" />
        </mxCell>
        <mxCell id="34PC_S3u4fPD3pMYHmbV-2" value="" style="fontColor=#0066CC;verticalAlign=top;verticalLabelPosition=bottom;labelPosition=center;align=center;html=1;outlineConnect=0;fillColor=#CCCCCC;strokeColor=#6881B3;gradientColor=none;gradientDirection=north;strokeWidth=2;shape=mxgraph.networks.desktop_pc;fontSize=16;" parent="WIyWlLk6GJQsqaUBKTNV-1" vertex="1">
          <mxGeometry x="-98" y="1840" width="80" height="140" as="geometry" />
        </mxCell>
        <mxCell id="34PC_S3u4fPD3pMYHmbV-3" value="" style="fontColor=#0066CC;verticalAlign=top;verticalLabelPosition=bottom;labelPosition=center;align=center;html=1;outlineConnect=0;fillColor=#CCCCCC;strokeColor=#6881B3;gradientColor=none;gradientDirection=north;strokeWidth=2;shape=mxgraph.networks.desktop_pc;fontSize=16;" parent="WIyWlLk6GJQsqaUBKTNV-1" vertex="1">
          <mxGeometry x="60" y="1840" width="80" height="140" as="geometry" />
        </mxCell>
        <mxCell id="34PC_S3u4fPD3pMYHmbV-14" value="" style="rounded=1;whiteSpace=wrap;html=1;strokeWidth=11;fontSize=16;" parent="WIyWlLk6GJQsqaUBKTNV-1" vertex="1">
          <mxGeometry x="-280" y="2100" width="950" height="10" as="geometry" />
        </mxCell>
        <mxCell id="34PC_S3u4fPD3pMYHmbV-15" value="" style="orthogonalLoop=1;jettySize=auto;html=1;rounded=0;endArrow=none;startFill=0;fontSize=16;" parent="WIyWlLk6GJQsqaUBKTNV-1" edge="1">
          <mxGeometry width="80" relative="1" as="geometry">
            <mxPoint x="-200" y="2120" as="sourcePoint" />
            <mxPoint x="-200" y="2240" as="targetPoint" />
          </mxGeometry>
        </mxCell>
        <mxCell id="34PC_S3u4fPD3pMYHmbV-16" value="" style="orthogonalLoop=1;jettySize=auto;html=1;rounded=0;endArrow=none;startFill=0;fontSize=16;" parent="WIyWlLk6GJQsqaUBKTNV-1" edge="1">
          <mxGeometry width="80" relative="1" as="geometry">
            <mxPoint x="70" y="2115" as="sourcePoint" />
            <mxPoint x="70" y="2250" as="targetPoint" />
          </mxGeometry>
        </mxCell>
        <mxCell id="34PC_S3u4fPD3pMYHmbV-17" value="" style="orthogonalLoop=1;jettySize=auto;html=1;rounded=0;endArrow=none;startFill=0;fontSize=16;" parent="WIyWlLk6GJQsqaUBKTNV-1" edge="1">
          <mxGeometry width="80" relative="1" as="geometry">
            <mxPoint x="-58.5" y="1980" as="sourcePoint" />
            <mxPoint x="-58.5" y="2100" as="targetPoint" />
          </mxGeometry>
        </mxCell>
        <mxCell id="34PC_S3u4fPD3pMYHmbV-18" value="" style="orthogonalLoop=1;jettySize=auto;html=1;rounded=0;endArrow=none;startFill=0;fontSize=16;" parent="WIyWlLk6GJQsqaUBKTNV-1" edge="1">
          <mxGeometry width="80" relative="1" as="geometry">
            <mxPoint x="100" y="1980" as="sourcePoint" />
            <mxPoint x="100" y="2100" as="targetPoint" />
          </mxGeometry>
        </mxCell>
        <mxCell id="34PC_S3u4fPD3pMYHmbV-19" value="web服务器" style="text;html=1;align=center;verticalAlign=middle;whiteSpace=wrap;rounded=0;fontSize=16;" parent="WIyWlLk6GJQsqaUBKTNV-1" vertex="1">
          <mxGeometry x="-110" y="1800" width="110" height="30" as="geometry" />
        </mxCell>
        <mxCell id="34PC_S3u4fPD3pMYHmbV-20" value="" style="fontColor=#0066CC;verticalAlign=top;verticalLabelPosition=bottom;labelPosition=center;align=center;html=1;outlineConnect=0;fillColor=#CCCCCC;strokeColor=#6881B3;gradientColor=none;gradientDirection=north;strokeWidth=2;shape=mxgraph.networks.desktop_pc;fontSize=16;" parent="WIyWlLk6GJQsqaUBKTNV-1" vertex="1">
          <mxGeometry x="-230" y="1840" width="80" height="140" as="geometry" />
        </mxCell>
        <mxCell id="34PC_S3u4fPD3pMYHmbV-21" value="" style="orthogonalLoop=1;jettySize=auto;html=1;rounded=0;endArrow=none;startFill=0;fontSize=16;" parent="WIyWlLk6GJQsqaUBKTNV-1" edge="1">
          <mxGeometry width="80" relative="1" as="geometry">
            <mxPoint x="-190.5" y="1980" as="sourcePoint" />
            <mxPoint x="-190.5" y="2100" as="targetPoint" />
          </mxGeometry>
        </mxCell>
        <mxCell id="34PC_S3u4fPD3pMYHmbV-22" value="服务端服务器" style="text;html=1;align=center;verticalAlign=middle;whiteSpace=wrap;rounded=0;fontSize=16;" parent="WIyWlLk6GJQsqaUBKTNV-1" vertex="1">
          <mxGeometry x="-250" y="1800" width="110" height="30" as="geometry" />
        </mxCell>
        <mxCell id="34PC_S3u4fPD3pMYHmbV-23" value="数据库服务器" style="text;html=1;align=center;verticalAlign=middle;whiteSpace=wrap;rounded=0;fontSize=16;" parent="WIyWlLk6GJQsqaUBKTNV-1" vertex="1">
          <mxGeometry x="50" y="1800" width="100" height="30" as="geometry" />
        </mxCell>
        <mxCell id="34PC_S3u4fPD3pMYHmbV-24" value="系统管理员" style="text;html=1;align=center;verticalAlign=middle;whiteSpace=wrap;rounded=0;fontSize=16;" parent="WIyWlLk6GJQsqaUBKTNV-1" vertex="1">
          <mxGeometry x="-240" y="2400" width="90" height="30" as="geometry" />
        </mxCell>
        <mxCell id="34PC_S3u4fPD3pMYHmbV-25" value="局域网用户" style="text;html=1;align=center;verticalAlign=middle;whiteSpace=wrap;rounded=0;fontSize=16;" parent="WIyWlLk6GJQsqaUBKTNV-1" vertex="1">
          <mxGeometry x="30" y="2400" width="100" height="30" as="geometry" />
        </mxCell>
        <mxCell id="34PC_S3u4fPD3pMYHmbV-26" value="局域网" style="text;html=1;align=center;verticalAlign=middle;whiteSpace=wrap;rounded=0;fontSize=16;" parent="WIyWlLk6GJQsqaUBKTNV-1" vertex="1">
          <mxGeometry x="-10" y="2060" width="72" height="30" as="geometry" />
        </mxCell>
        <mxCell id="34PC_S3u4fPD3pMYHmbV-27" value="" style="image;html=1;image=img/lib/clip_art/networking/Wireless_Router_N_128x128.png;fontSize=16;" parent="WIyWlLk6GJQsqaUBKTNV-1" vertex="1">
          <mxGeometry x="440" y="2010" width="80" height="80" as="geometry" />
        </mxCell>
        <mxCell id="34PC_S3u4fPD3pMYHmbV-28" value="路由器/交换机" style="text;html=1;align=center;verticalAlign=middle;whiteSpace=wrap;rounded=0;fontSize=16;" parent="WIyWlLk6GJQsqaUBKTNV-1" vertex="1">
          <mxGeometry x="440" y="1970" width="110" height="30" as="geometry" />
        </mxCell>
        <mxCell id="34PC_S3u4fPD3pMYHmbV-29" value="" style="orthogonalLoop=1;jettySize=auto;html=1;rounded=0;endArrow=none;startFill=0;fontSize=16;" parent="WIyWlLk6GJQsqaUBKTNV-1" edge="1">
          <mxGeometry width="80" relative="1" as="geometry">
            <mxPoint x="480" y="2110" as="sourcePoint" />
            <mxPoint x="480" y="2245" as="targetPoint" />
          </mxGeometry>
        </mxCell>
        <mxCell id="34PC_S3u4fPD3pMYHmbV-31" value="" style="fontColor=#0066CC;verticalAlign=top;verticalLabelPosition=bottom;labelPosition=center;align=center;html=1;outlineConnect=0;fillColor=#CCCCCC;strokeColor=#6881B3;gradientColor=none;gradientDirection=north;strokeWidth=2;shape=mxgraph.networks.laptop;fontSize=16;" parent="WIyWlLk6GJQsqaUBKTNV-1" vertex="1">
          <mxGeometry x="340" y="2370" width="140" height="90" as="geometry" />
        </mxCell>
        <mxCell id="34PC_S3u4fPD3pMYHmbV-32" value="互联网" style="ellipse;whiteSpace=wrap;html=1;fontSize=16;" parent="WIyWlLk6GJQsqaUBKTNV-1" vertex="1">
          <mxGeometry x="380" y="2240" width="210" height="60" as="geometry" />
        </mxCell>
        <mxCell id="34PC_S3u4fPD3pMYHmbV-33" value="" style="image;points=[];aspect=fixed;html=1;align=center;shadow=0;dashed=0;image=img/lib/allied_telesis/computer_and_terminals/Personal_Computer_with_Server.svg;fontSize=16;" parent="WIyWlLk6GJQsqaUBKTNV-1" vertex="1">
          <mxGeometry x="510" y="2340" width="140" height="140" as="geometry" />
        </mxCell>
        <mxCell id="34PC_S3u4fPD3pMYHmbV-34" value="远程用户" style="text;html=1;align=center;verticalAlign=middle;whiteSpace=wrap;rounded=0;fontSize=16;" parent="WIyWlLk6GJQsqaUBKTNV-1" vertex="1">
          <mxGeometry x="390" y="2480" width="72" height="30" as="geometry" />
        </mxCell>
        <mxCell id="34PC_S3u4fPD3pMYHmbV-35" value="远程用户" style="text;html=1;align=center;verticalAlign=middle;whiteSpace=wrap;rounded=0;fontSize=16;" parent="WIyWlLk6GJQsqaUBKTNV-1" vertex="1">
          <mxGeometry x="570" y="2490" width="72" height="30" as="geometry" />
        </mxCell>
        <mxCell id="_s_XrGSySmN9xmIywYtK-0" value="应用客户端" style="shape=umlLifeline;perimeter=lifelinePerimeter;whiteSpace=wrap;html=1;container=1;dropTarget=0;collapsible=0;recursiveResize=0;outlineConnect=0;portConstraint=eastwest;newEdgeStyle={&quot;curved&quot;:0,&quot;rounded&quot;:0};fontSize=14;" vertex="1" parent="WIyWlLk6GJQsqaUBKTNV-1">
          <mxGeometry x="90" y="2860" width="100" height="660" as="geometry" />
        </mxCell>
        <mxCell id="_s_XrGSySmN9xmIywYtK-16" value="" style="html=1;points=[[0,0,0,0,5],[0,1,0,0,-5],[1,0,0,0,5],[1,1,0,0,-5]];perimeter=orthogonalPerimeter;outlineConnect=0;targetShapes=umlLifeline;portConstraint=eastwest;newEdgeStyle={&quot;curved&quot;:0,&quot;rounded&quot;:0};fontSize=13;" vertex="1" parent="_s_XrGSySmN9xmIywYtK-0">
          <mxGeometry x="40" y="100" width="20" height="480" as="geometry" />
        </mxCell>
        <mxCell id="_s_XrGSySmN9xmIywYtK-2" value="数据库" style="shape=umlLifeline;perimeter=lifelinePerimeter;whiteSpace=wrap;html=1;container=1;dropTarget=0;collapsible=0;recursiveResize=0;outlineConnect=0;portConstraint=eastwest;newEdgeStyle={&quot;curved&quot;:0,&quot;rounded&quot;:0};fontSize=14;" vertex="1" parent="WIyWlLk6GJQsqaUBKTNV-1">
          <mxGeometry x="460" y="2860" width="100" height="660" as="geometry" />
        </mxCell>
        <mxCell id="_s_XrGSySmN9xmIywYtK-20" value="" style="html=1;points=[[0,0,0,0,5],[0,1,0,0,-5],[1,0,0,0,5],[1,1,0,0,-5]];perimeter=orthogonalPerimeter;outlineConnect=0;targetShapes=umlLifeline;portConstraint=eastwest;newEdgeStyle={&quot;curved&quot;:0,&quot;rounded&quot;:0};fontSize=13;" vertex="1" parent="_s_XrGSySmN9xmIywYtK-2">
          <mxGeometry x="40" y="100" width="20" height="470" as="geometry" />
        </mxCell>
        <mxCell id="_s_XrGSySmN9xmIywYtK-3" value="后端服务器" style="shape=umlLifeline;perimeter=lifelinePerimeter;whiteSpace=wrap;html=1;container=1;dropTarget=0;collapsible=0;recursiveResize=0;outlineConnect=0;portConstraint=eastwest;newEdgeStyle={&quot;curved&quot;:0,&quot;rounded&quot;:0};fontSize=14;" vertex="1" parent="WIyWlLk6GJQsqaUBKTNV-1">
          <mxGeometry x="300" y="2860" width="100" height="660" as="geometry" />
        </mxCell>
        <mxCell id="_s_XrGSySmN9xmIywYtK-21" value="" style="html=1;points=[[0,0,0,0,5],[0,1,0,0,-5],[1,0,0,0,5],[1,1,0,0,-5]];perimeter=orthogonalPerimeter;outlineConnect=0;targetShapes=umlLifeline;portConstraint=eastwest;newEdgeStyle={&quot;curved&quot;:0,&quot;rounded&quot;:0};fontSize=13;" vertex="1" parent="_s_XrGSySmN9xmIywYtK-3">
          <mxGeometry x="40" y="80" width="20" height="500" as="geometry" />
        </mxCell>
        <mxCell id="_s_XrGSySmN9xmIywYtK-7" value="" style="endArrow=none;dashed=1;html=1;rounded=0;" edge="1" parent="WIyWlLk6GJQsqaUBKTNV-1">
          <mxGeometry width="50" height="50" relative="1" as="geometry">
            <mxPoint x="240" y="3520" as="sourcePoint" />
            <mxPoint x="240" y="2760" as="targetPoint" />
          </mxGeometry>
        </mxCell>
        <mxCell id="_s_XrGSySmN9xmIywYtK-8" value="" style="endArrow=none;dashed=1;html=1;rounded=0;" edge="1" parent="WIyWlLk6GJQsqaUBKTNV-1">
          <mxGeometry width="50" height="50" relative="1" as="geometry">
            <mxPoint x="240" y="2820" as="sourcePoint" />
            <mxPoint x="950" y="2820" as="targetPoint" />
          </mxGeometry>
        </mxCell>
        <mxCell id="_s_XrGSySmN9xmIywYtK-9" value="客户端" style="text;html=1;align=center;verticalAlign=middle;whiteSpace=wrap;rounded=0;fontSize=14;" vertex="1" parent="WIyWlLk6GJQsqaUBKTNV-1">
          <mxGeometry x="140" y="2780" width="60" height="30" as="geometry" />
        </mxCell>
        <mxCell id="_s_XrGSySmN9xmIywYtK-10" value="服务端" style="text;html=1;align=center;verticalAlign=middle;whiteSpace=wrap;rounded=0;fontSize=14;" vertex="1" parent="WIyWlLk6GJQsqaUBKTNV-1">
          <mxGeometry x="270" y="2780" width="60" height="30" as="geometry" />
        </mxCell>
        <mxCell id="_s_XrGSySmN9xmIywYtK-11" value="" style="endArrow=none;dashed=1;html=1;rounded=0;" edge="1" parent="WIyWlLk6GJQsqaUBKTNV-1">
          <mxGeometry width="50" height="50" relative="1" as="geometry">
            <mxPoint x="610" y="3520" as="sourcePoint" />
            <mxPoint x="610" y="2820" as="targetPoint" />
          </mxGeometry>
        </mxCell>
        <mxCell id="_s_XrGSySmN9xmIywYtK-12" value="区块链外" style="text;html=1;align=center;verticalAlign=middle;whiteSpace=wrap;rounded=0;fontSize=14;" vertex="1" parent="WIyWlLk6GJQsqaUBKTNV-1">
          <mxGeometry x="250" y="2830" width="60" height="30" as="geometry" />
        </mxCell>
        <mxCell id="_s_XrGSySmN9xmIywYtK-13" value="区块链内" style="text;html=1;align=center;verticalAlign=middle;whiteSpace=wrap;rounded=0;fontSize=14;" vertex="1" parent="WIyWlLk6GJQsqaUBKTNV-1">
          <mxGeometry x="640" y="2830" width="60" height="30" as="geometry" />
        </mxCell>
        <mxCell id="_s_XrGSySmN9xmIywYtK-14" value="区块链节点" style="shape=umlLifeline;perimeter=lifelinePerimeter;whiteSpace=wrap;html=1;container=1;dropTarget=0;collapsible=0;recursiveResize=0;outlineConnect=0;portConstraint=eastwest;newEdgeStyle={&quot;curved&quot;:0,&quot;rounded&quot;:0};fontSize=14;" vertex="1" parent="WIyWlLk6GJQsqaUBKTNV-1">
          <mxGeometry x="670" y="2860" width="100" height="660" as="geometry" />
        </mxCell>
        <mxCell id="_s_XrGSySmN9xmIywYtK-15" value="只能合约" style="shape=umlLifeline;perimeter=lifelinePerimeter;whiteSpace=wrap;html=1;container=1;dropTarget=0;collapsible=0;recursiveResize=0;outlineConnect=0;portConstraint=eastwest;newEdgeStyle={&quot;curved&quot;:0,&quot;rounded&quot;:0};fontSize=14;" vertex="1" parent="WIyWlLk6GJQsqaUBKTNV-1">
          <mxGeometry x="800" y="2860" width="100" height="660" as="geometry" />
        </mxCell>
        <mxCell id="_s_XrGSySmN9xmIywYtK-19" value="" style="endArrow=open;endFill=1;endSize=12;html=1;rounded=0;fontSize=13;" edge="1" parent="WIyWlLk6GJQsqaUBKTNV-1">
          <mxGeometry width="160" relative="1" as="geometry">
            <mxPoint x="150" y="2970" as="sourcePoint" />
            <mxPoint x="340" y="2970" as="targetPoint" />
          </mxGeometry>
        </mxCell>
        <mxCell id="_s_XrGSySmN9xmIywYtK-22" value="1.用户注册http请求" style="edgeLabel;html=1;align=center;verticalAlign=middle;resizable=0;points=[];fontSize=13;" vertex="1" connectable="0" parent="_s_XrGSySmN9xmIywYtK-19">
          <mxGeometry x="0.2349" y="3" relative="1" as="geometry">
            <mxPoint x="-17" as="offset" />
          </mxGeometry>
        </mxCell>
        <mxCell id="_s_XrGSySmN9xmIywYtK-23" value="" style="endArrow=open;endFill=1;endSize=12;html=1;rounded=0;fontSize=13;" edge="1" parent="WIyWlLk6GJQsqaUBKTNV-1" target="_s_XrGSySmN9xmIywYtK-20">
          <mxGeometry width="160" relative="1" as="geometry">
            <mxPoint x="360" y="2980" as="sourcePoint" />
            <mxPoint x="460" y="2980" as="targetPoint" />
          </mxGeometry>
        </mxCell>
        <mxCell id="_s_XrGSySmN9xmIywYtK-24" value="查询用户信息" style="edgeLabel;html=1;align=center;verticalAlign=middle;resizable=0;points=[];fontSize=13;" vertex="1" connectable="0" parent="_s_XrGSySmN9xmIywYtK-23">
          <mxGeometry x="-0.0233" y="-3" relative="1" as="geometry">
            <mxPoint as="offset" />
          </mxGeometry>
        </mxCell>
        <mxCell id="_s_XrGSySmN9xmIywYtK-25" value="" style="endArrow=open;endFill=1;endSize=12;html=1;rounded=0;fontSize=13;" edge="1" parent="WIyWlLk6GJQsqaUBKTNV-1">
          <mxGeometry width="160" relative="1" as="geometry">
            <mxPoint x="500" y="3010" as="sourcePoint" />
            <mxPoint x="360" y="3010" as="targetPoint" />
          </mxGeometry>
        </mxCell>
        <mxCell id="_s_XrGSySmN9xmIywYtK-26" value="返回用户信息" style="edgeLabel;html=1;align=center;verticalAlign=middle;resizable=0;points=[];fontSize=13;" vertex="1" connectable="0" parent="_s_XrGSySmN9xmIywYtK-25">
          <mxGeometry x="0.0233" y="-1" relative="1" as="geometry">
            <mxPoint as="offset" />
          </mxGeometry>
        </mxCell>
        <mxCell id="_s_XrGSySmN9xmIywYtK-27" value="判断" style="shape=umlFrame;whiteSpace=wrap;html=1;pointerEvents=0;fontSize=13;" vertex="1" parent="WIyWlLk6GJQsqaUBKTNV-1">
          <mxGeometry x="20" y="3020" width="950" height="230" as="geometry" />
        </mxCell>
        <mxCell id="_s_XrGSySmN9xmIywYtK-28" value="用户有注册注册" style="text;html=1;align=center;verticalAlign=middle;resizable=0;points=[];autosize=1;strokeColor=none;fillColor=none;fontSize=13;" vertex="1" parent="WIyWlLk6GJQsqaUBKTNV-1">
          <mxGeometry x="20" y="3050" width="110" height="30" as="geometry" />
        </mxCell>
        <mxCell id="_s_XrGSySmN9xmIywYtK-29" value="" style="endArrow=none;dashed=1;html=1;rounded=0;entryX=0.997;entryY=0.548;entryDx=0;entryDy=0;entryPerimeter=0;fontSize=13;" edge="1" parent="WIyWlLk6GJQsqaUBKTNV-1">
          <mxGeometry width="50" height="50" relative="1" as="geometry">
            <mxPoint x="20" y="3112" as="sourcePoint" />
            <mxPoint x="958.1000000000006" y="3110" as="targetPoint" />
          </mxGeometry>
        </mxCell>
        <mxCell id="_s_XrGSySmN9xmIywYtK-30" value="否则" style="text;html=1;align=center;verticalAlign=middle;resizable=0;points=[];autosize=1;strokeColor=none;fillColor=none;fontSize=13;" vertex="1" parent="WIyWlLk6GJQsqaUBKTNV-1">
          <mxGeometry x="20" y="3150" width="50" height="30" as="geometry" />
        </mxCell>
        <mxCell id="_s_XrGSySmN9xmIywYtK-31" value="" style="endArrow=open;endFill=1;endSize=12;html=1;rounded=0;fontSize=13;dashed=1;" edge="1" parent="WIyWlLk6GJQsqaUBKTNV-1" target="_s_XrGSySmN9xmIywYtK-16">
          <mxGeometry width="160" relative="1" as="geometry">
            <mxPoint x="340" y="3070" as="sourcePoint" />
            <mxPoint x="160" y="3070" as="targetPoint" />
          </mxGeometry>
        </mxCell>
        <mxCell id="_s_XrGSySmN9xmIywYtK-32" value="返回已经注册状态码" style="edgeLabel;html=1;align=center;verticalAlign=middle;resizable=0;points=[];fontSize=13;" vertex="1" connectable="0" parent="_s_XrGSySmN9xmIywYtK-31">
          <mxGeometry x="-0.0244" y="3" relative="1" as="geometry">
            <mxPoint as="offset" />
          </mxGeometry>
        </mxCell>
        <mxCell id="_s_XrGSySmN9xmIywYtK-33" value="" style="endArrow=open;endFill=1;endSize=12;html=1;rounded=0;fontSize=13;" edge="1" parent="WIyWlLk6GJQsqaUBKTNV-1" target="_s_XrGSySmN9xmIywYtK-36">
          <mxGeometry width="160" relative="1" as="geometry">
            <mxPoint x="360" y="3140" as="sourcePoint" />
            <mxPoint x="520" y="3140" as="targetPoint" />
          </mxGeometry>
        </mxCell>
        <mxCell id="_s_XrGSySmN9xmIywYtK-34" value="服务端发起交易" style="edgeLabel;html=1;align=center;verticalAlign=middle;resizable=0;points=[];fontSize=13;" vertex="1" connectable="0" parent="_s_XrGSySmN9xmIywYtK-33">
          <mxGeometry x="-0.1185" relative="1" as="geometry">
            <mxPoint as="offset" />
          </mxGeometry>
        </mxCell>
        <mxCell id="_s_XrGSySmN9xmIywYtK-35" value="注册信息" style="endArrow=open;endFill=1;endSize=12;html=1;rounded=0;fontSize=13;" edge="1" parent="WIyWlLk6GJQsqaUBKTNV-1" source="_s_XrGSySmN9xmIywYtK-21">
          <mxGeometry width="160" relative="1" as="geometry">
            <mxPoint x="370" y="3200" as="sourcePoint" />
            <mxPoint x="500" y="3200" as="targetPoint" />
          </mxGeometry>
        </mxCell>
        <mxCell id="_s_XrGSySmN9xmIywYtK-36" value="" style="html=1;points=[[0,0,0,0,5],[0,1,0,0,-5],[1,0,0,0,5],[1,1,0,0,-5]];perimeter=orthogonalPerimeter;outlineConnect=0;targetShapes=umlLifeline;portConstraint=eastwest;newEdgeStyle={&quot;curved&quot;:0,&quot;rounded&quot;:0};fontSize=13;" vertex="1" parent="WIyWlLk6GJQsqaUBKTNV-1">
          <mxGeometry x="840" y="2960" width="20" height="280" as="geometry" />
        </mxCell>
        <mxCell id="_s_XrGSySmN9xmIywYtK-37" value="" style="endArrow=open;endFill=1;endSize=12;html=1;rounded=0;fontSize=13;dashed=1;" edge="1" parent="WIyWlLk6GJQsqaUBKTNV-1" source="_s_XrGSySmN9xmIywYtK-36">
          <mxGeometry width="160" relative="1" as="geometry">
            <mxPoint x="690" y="3170" as="sourcePoint" />
            <mxPoint x="360" y="3170" as="targetPoint" />
          </mxGeometry>
        </mxCell>
        <mxCell id="_s_XrGSySmN9xmIywYtK-38" value="返回注册信息" style="edgeLabel;html=1;align=center;verticalAlign=middle;resizable=0;points=[];fontSize=13;" vertex="1" connectable="0" parent="_s_XrGSySmN9xmIywYtK-37">
          <mxGeometry x="-0.1533" y="2" relative="1" as="geometry">
            <mxPoint as="offset" />
          </mxGeometry>
        </mxCell>
        <mxCell id="_s_XrGSySmN9xmIywYtK-39" value="" style="endArrow=open;endFill=1;endSize=12;html=1;rounded=0;fontSize=13;dashed=1;" edge="1" parent="WIyWlLk6GJQsqaUBKTNV-1" target="_s_XrGSySmN9xmIywYtK-16">
          <mxGeometry width="160" relative="1" as="geometry">
            <mxPoint x="340" y="3220" as="sourcePoint" />
            <mxPoint x="500" y="3220" as="targetPoint" />
          </mxGeometry>
        </mxCell>
        <mxCell id="_s_XrGSySmN9xmIywYtK-40" value="返回注册信息" style="edgeLabel;html=1;align=center;verticalAlign=middle;resizable=0;points=[];fontSize=13;" vertex="1" connectable="0" parent="_s_XrGSySmN9xmIywYtK-39">
          <mxGeometry x="-0.1573" y="-3" relative="1" as="geometry">
            <mxPoint as="offset" />
          </mxGeometry>
        </mxCell>
        <mxCell id="_s_XrGSySmN9xmIywYtK-41" value="" style="endArrow=open;endFill=1;endSize=12;html=1;rounded=0;fontSize=13;" edge="1" parent="WIyWlLk6GJQsqaUBKTNV-1" target="_s_XrGSySmN9xmIywYtK-21">
          <mxGeometry width="160" relative="1" as="geometry">
            <mxPoint x="150" y="3310" as="sourcePoint" />
            <mxPoint x="310" y="3310" as="targetPoint" />
          </mxGeometry>
        </mxCell>
        <mxCell id="_s_XrGSySmN9xmIywYtK-42" value="携带钱包签名发起登录请求" style="edgeLabel;html=1;align=center;verticalAlign=middle;resizable=0;points=[];fontSize=13;" vertex="1" connectable="0" parent="_s_XrGSySmN9xmIywYtK-41">
          <mxGeometry x="0.0909" y="2" relative="1" as="geometry">
            <mxPoint x="-13" as="offset" />
          </mxGeometry>
        </mxCell>
        <mxCell id="_s_XrGSySmN9xmIywYtK-43" value="" style="endArrow=open;endFill=1;endSize=12;html=1;rounded=0;fontSize=13;" edge="1" parent="WIyWlLk6GJQsqaUBKTNV-1">
          <mxGeometry width="160" relative="1" as="geometry">
            <mxPoint x="360" y="3390" as="sourcePoint" />
            <mxPoint x="500" y="3390" as="targetPoint" />
          </mxGeometry>
        </mxCell>
        <mxCell id="_s_XrGSySmN9xmIywYtK-44" value="查询一次性登录nonce" style="edgeLabel;html=1;align=center;verticalAlign=middle;resizable=0;points=[];fontSize=13;" vertex="1" connectable="0" parent="_s_XrGSySmN9xmIywYtK-43">
          <mxGeometry x="-0.0233" y="1" relative="1" as="geometry">
            <mxPoint y="1" as="offset" />
          </mxGeometry>
        </mxCell>
        <mxCell id="_s_XrGSySmN9xmIywYtK-45" value="" style="endArrow=open;endFill=1;endSize=12;html=1;rounded=0;fontSize=13;" edge="1" parent="WIyWlLk6GJQsqaUBKTNV-1" target="_s_XrGSySmN9xmIywYtK-21">
          <mxGeometry width="160" relative="1" as="geometry">
            <mxPoint x="360" y="3320" as="sourcePoint" />
            <mxPoint x="520" y="3320" as="targetPoint" />
            <Array as="points">
              <mxPoint x="460" y="3320" />
              <mxPoint x="460" y="3350" />
            </Array>
          </mxGeometry>
        </mxCell>
        <mxCell id="_s_XrGSySmN9xmIywYtK-46" value="验证签名" style="edgeLabel;html=1;align=center;verticalAlign=middle;resizable=0;points=[];fontSize=13;" vertex="1" connectable="0" parent="_s_XrGSySmN9xmIywYtK-45">
          <mxGeometry x="-0.4513" y="-1" relative="1" as="geometry">
            <mxPoint as="offset" />
          </mxGeometry>
        </mxCell>
        <mxCell id="_s_XrGSySmN9xmIywYtK-47" value="" style="endArrow=open;endFill=1;endSize=12;html=1;rounded=0;fontSize=13;dashed=1;" edge="1" parent="WIyWlLk6GJQsqaUBKTNV-1" target="_s_XrGSySmN9xmIywYtK-21">
          <mxGeometry width="160" relative="1" as="geometry">
            <mxPoint x="500" y="3410" as="sourcePoint" />
            <mxPoint x="660" y="3410" as="targetPoint" />
          </mxGeometry>
        </mxCell>
        <mxCell id="_s_XrGSySmN9xmIywYtK-48" value="返回用户nonce" style="edgeLabel;html=1;align=center;verticalAlign=middle;resizable=0;points=[];fontSize=13;" vertex="1" connectable="0" parent="_s_XrGSySmN9xmIywYtK-47">
          <mxGeometry x="0.0383" y="2" relative="1" as="geometry">
            <mxPoint as="offset" />
          </mxGeometry>
        </mxCell>
        <mxCell id="_s_XrGSySmN9xmIywYtK-49" value="" style="endArrow=open;endFill=1;endSize=12;html=1;rounded=0;fontSize=13;" edge="1" parent="WIyWlLk6GJQsqaUBKTNV-1" source="_s_XrGSySmN9xmIywYtK-21">
          <mxGeometry width="160" relative="1" as="geometry">
            <mxPoint x="280" y="3480" as="sourcePoint" />
            <mxPoint x="149.99999999999977" y="3420" as="targetPoint" />
          </mxGeometry>
        </mxCell>
        <mxCell id="_s_XrGSySmN9xmIywYtK-51" value="返回携带jwt cookie" style="edgeLabel;html=1;align=center;verticalAlign=middle;resizable=0;points=[];fontSize=13;" vertex="1" connectable="0" parent="_s_XrGSySmN9xmIywYtK-49">
          <mxGeometry x="-0.0465" y="2" relative="1" as="geometry">
            <mxPoint as="offset" />
          </mxGeometry>
        </mxCell>
        <mxCell id="_s_XrGSySmN9xmIywYtK-52" value="认证视图类" style="swimlane;fontStyle=1;align=center;verticalAlign=top;childLayout=stackLayout;horizontal=1;startSize=26;horizontalStack=0;resizeParent=1;resizeParentMax=0;resizeLast=0;collapsible=1;marginBottom=0;whiteSpace=wrap;html=1;" vertex="1" parent="WIyWlLk6GJQsqaUBKTNV-1">
          <mxGeometry x="1520" y="2990" width="160" height="112" as="geometry" />
        </mxCell>
        <mxCell id="_s_XrGSySmN9xmIywYtK-53" value="+ address: string" style="text;strokeColor=none;fillColor=none;align=left;verticalAlign=top;spacingLeft=4;spacingRight=4;overflow=hidden;rotatable=0;points=[[0,0.5],[1,0.5]];portConstraint=eastwest;whiteSpace=wrap;html=1;" vertex="1" parent="_s_XrGSySmN9xmIywYtK-52">
          <mxGeometry y="26" width="160" height="26" as="geometry" />
        </mxCell>
        <mxCell id="_s_XrGSySmN9xmIywYtK-54" value="" style="line;strokeWidth=1;fillColor=none;align=left;verticalAlign=middle;spacingTop=-1;spacingLeft=3;spacingRight=3;rotatable=0;labelPosition=right;points=[];portConstraint=eastwest;strokeColor=inherit;" vertex="1" parent="_s_XrGSySmN9xmIywYtK-52">
          <mxGeometry y="52" width="160" height="8" as="geometry" />
        </mxCell>
        <mxCell id="_s_XrGSySmN9xmIywYtK-109" value="+ signup: void" style="text;strokeColor=none;fillColor=none;align=left;verticalAlign=top;spacingLeft=4;spacingRight=4;overflow=hidden;rotatable=0;points=[[0,0.5],[1,0.5]];portConstraint=eastwest;whiteSpace=wrap;html=1;" vertex="1" parent="_s_XrGSySmN9xmIywYtK-52">
          <mxGeometry y="60" width="160" height="26" as="geometry" />
        </mxCell>
        <mxCell id="_s_XrGSySmN9xmIywYtK-55" value="+ loginMutation: void&lt;div&gt;&lt;br&gt;&lt;/div&gt;" style="text;strokeColor=none;fillColor=none;align=left;verticalAlign=top;spacingLeft=4;spacingRight=4;overflow=hidden;rotatable=0;points=[[0,0.5],[1,0.5]];portConstraint=eastwest;whiteSpace=wrap;html=1;" vertex="1" parent="_s_XrGSySmN9xmIywYtK-52">
          <mxGeometry y="86" width="160" height="26" as="geometry" />
        </mxCell>
        <mxCell id="_s_XrGSySmN9xmIywYtK-56" value="认证控制类" style="swimlane;fontStyle=1;align=center;verticalAlign=top;childLayout=stackLayout;horizontal=1;startSize=26;horizontalStack=0;resizeParent=1;resizeParentMax=0;resizeLast=0;collapsible=1;marginBottom=0;whiteSpace=wrap;html=1;" vertex="1" parent="WIyWlLk6GJQsqaUBKTNV-1">
          <mxGeometry x="1520" y="3190" width="160" height="126" as="geometry" />
        </mxCell>
        <mxCell id="_s_XrGSySmN9xmIywYtK-57" value="+ login: type&lt;div&gt;&lt;br&gt;&lt;/div&gt;" style="text;strokeColor=none;fillColor=none;align=left;verticalAlign=top;spacingLeft=4;spacingRight=4;overflow=hidden;rotatable=0;points=[[0,0.5],[1,0.5]];portConstraint=eastwest;whiteSpace=wrap;html=1;" vertex="1" parent="_s_XrGSySmN9xmIywYtK-56">
          <mxGeometry y="26" width="160" height="34" as="geometry" />
        </mxCell>
        <mxCell id="_s_XrGSySmN9xmIywYtK-58" value="" style="line;strokeWidth=1;fillColor=none;align=left;verticalAlign=middle;spacingTop=-1;spacingLeft=3;spacingRight=3;rotatable=0;labelPosition=right;points=[];portConstraint=eastwest;strokeColor=inherit;" vertex="1" parent="_s_XrGSySmN9xmIywYtK-56">
          <mxGeometry y="60" width="160" height="8" as="geometry" />
        </mxCell>
        <mxCell id="_s_XrGSySmN9xmIywYtK-59" value="+ login(): void&lt;div&gt;&lt;br&gt;&lt;/div&gt;" style="text;strokeColor=none;fillColor=none;align=left;verticalAlign=top;spacingLeft=4;spacingRight=4;overflow=hidden;rotatable=0;points=[[0,0.5],[1,0.5]];portConstraint=eastwest;whiteSpace=wrap;html=1;" vertex="1" parent="_s_XrGSySmN9xmIywYtK-56">
          <mxGeometry y="68" width="160" height="32" as="geometry" />
        </mxCell>
        <mxCell id="_s_XrGSySmN9xmIywYtK-74" value="+ siginup(): void" style="text;strokeColor=none;fillColor=none;align=left;verticalAlign=top;spacingLeft=4;spacingRight=4;overflow=hidden;rotatable=0;points=[[0,0.5],[1,0.5]];portConstraint=eastwest;whiteSpace=wrap;html=1;" vertex="1" parent="_s_XrGSySmN9xmIywYtK-56">
          <mxGeometry y="100" width="160" height="26" as="geometry" />
        </mxCell>
        <mxCell id="_s_XrGSySmN9xmIywYtK-68" value="用户模型" style="swimlane;fontStyle=0;childLayout=stackLayout;horizontal=1;startSize=26;fillColor=none;horizontalStack=0;resizeParent=1;resizeParentMax=0;resizeLast=0;collapsible=1;marginBottom=0;whiteSpace=wrap;html=1;" vertex="1" parent="WIyWlLk6GJQsqaUBKTNV-1">
          <mxGeometry x="1530" y="3600" width="140" height="180" as="geometry" />
        </mxCell>
        <mxCell id="_s_XrGSySmN9xmIywYtK-69" value="+ address: string" style="text;strokeColor=none;fillColor=none;align=left;verticalAlign=top;spacingLeft=4;spacingRight=4;overflow=hidden;rotatable=0;points=[[0,0.5],[1,0.5]];portConstraint=eastwest;whiteSpace=wrap;html=1;" vertex="1" parent="_s_XrGSySmN9xmIywYtK-68">
          <mxGeometry y="26" width="140" height="26" as="geometry" />
        </mxCell>
        <mxCell id="_s_XrGSySmN9xmIywYtK-70" value="+ username: string" style="text;strokeColor=none;fillColor=none;align=left;verticalAlign=top;spacingLeft=4;spacingRight=4;overflow=hidden;rotatable=0;points=[[0,0.5],[1,0.5]];portConstraint=eastwest;whiteSpace=wrap;html=1;" vertex="1" parent="_s_XrGSySmN9xmIywYtK-68">
          <mxGeometry y="52" width="140" height="26" as="geometry" />
        </mxCell>
        <mxCell id="_s_XrGSySmN9xmIywYtK-71" value="+ nonce: number" style="text;strokeColor=none;fillColor=none;align=left;verticalAlign=top;spacingLeft=4;spacingRight=4;overflow=hidden;rotatable=0;points=[[0,0.5],[1,0.5]];portConstraint=eastwest;whiteSpace=wrap;html=1;" vertex="1" parent="_s_XrGSySmN9xmIywYtK-68">
          <mxGeometry y="78" width="140" height="24" as="geometry" />
        </mxCell>
        <mxCell id="_s_XrGSySmN9xmIywYtK-73" value="+ role: string" style="text;strokeColor=none;fillColor=none;align=left;verticalAlign=top;spacingLeft=4;spacingRight=4;overflow=hidden;rotatable=0;points=[[0,0.5],[1,0.5]];portConstraint=eastwest;whiteSpace=wrap;html=1;" vertex="1" parent="_s_XrGSySmN9xmIywYtK-68">
          <mxGeometry y="102" width="140" height="26" as="geometry" />
        </mxCell>
        <mxCell id="_s_XrGSySmN9xmIywYtK-75" value="+ verifiedhash: string" style="text;strokeColor=none;fillColor=none;align=left;verticalAlign=top;spacingLeft=4;spacingRight=4;overflow=hidden;rotatable=0;points=[[0,0.5],[1,0.5]];portConstraint=eastwest;whiteSpace=wrap;html=1;" vertex="1" parent="_s_XrGSySmN9xmIywYtK-68">
          <mxGeometry y="128" width="140" height="26" as="geometry" />
        </mxCell>
        <mxCell id="_s_XrGSySmN9xmIywYtK-76" value="+ userimage: string" style="text;strokeColor=none;fillColor=none;align=left;verticalAlign=top;spacingLeft=4;spacingRight=4;overflow=hidden;rotatable=0;points=[[0,0.5],[1,0.5]];portConstraint=eastwest;whiteSpace=wrap;html=1;" vertex="1" parent="_s_XrGSySmN9xmIywYtK-68">
          <mxGeometry y="154" width="140" height="26" as="geometry" />
        </mxCell>
        <mxCell id="_s_XrGSySmN9xmIywYtK-81" value="" style="endArrow=block;dashed=1;endFill=0;endSize=12;html=1;rounded=0;exitX=0.445;exitY=0.952;exitDx=0;exitDy=0;exitPerimeter=0;entryX=0.439;entryY=0.014;entryDx=0;entryDy=0;entryPerimeter=0;" edge="1" parent="WIyWlLk6GJQsqaUBKTNV-1" source="_s_XrGSySmN9xmIywYtK-55" target="_s_XrGSySmN9xmIywYtK-56">
          <mxGeometry width="160" relative="1" as="geometry">
            <mxPoint x="1350" y="3370" as="sourcePoint" />
            <mxPoint x="1850" y="3310" as="targetPoint" />
          </mxGeometry>
        </mxCell>
        <mxCell id="_s_XrGSySmN9xmIywYtK-87" value="用户信息类" style="swimlane;fontStyle=0;childLayout=stackLayout;horizontal=1;startSize=26;fillColor=none;horizontalStack=0;resizeParent=1;resizeParentMax=0;resizeLast=0;collapsible=1;marginBottom=0;whiteSpace=wrap;html=1;" vertex="1" parent="WIyWlLk6GJQsqaUBKTNV-1">
          <mxGeometry x="1830" y="3650" width="140" height="104" as="geometry" />
        </mxCell>
        <mxCell id="_s_XrGSySmN9xmIywYtK-88" value="+ usertype: string" style="text;strokeColor=none;fillColor=none;align=left;verticalAlign=top;spacingLeft=4;spacingRight=4;overflow=hidden;rotatable=0;points=[[0,0.5],[1,0.5]];portConstraint=eastwest;whiteSpace=wrap;html=1;" vertex="1" parent="_s_XrGSySmN9xmIywYtK-87">
          <mxGeometry y="26" width="140" height="26" as="geometry" />
        </mxCell>
        <mxCell id="_s_XrGSySmN9xmIywYtK-89" value="+ registerDate: uint256" style="text;strokeColor=none;fillColor=none;align=left;verticalAlign=top;spacingLeft=4;spacingRight=4;overflow=hidden;rotatable=0;points=[[0,0.5],[1,0.5]];portConstraint=eastwest;whiteSpace=wrap;html=1;" vertex="1" parent="_s_XrGSySmN9xmIywYtK-87">
          <mxGeometry y="52" width="140" height="26" as="geometry" />
        </mxCell>
        <mxCell id="_s_XrGSySmN9xmIywYtK-90" value="+ isActive: boolean" style="text;strokeColor=none;fillColor=none;align=left;verticalAlign=top;spacingLeft=4;spacingRight=4;overflow=hidden;rotatable=0;points=[[0,0.5],[1,0.5]];portConstraint=eastwest;whiteSpace=wrap;html=1;" vertex="1" parent="_s_XrGSySmN9xmIywYtK-87">
          <mxGeometry y="78" width="140" height="26" as="geometry" />
        </mxCell>
        <mxCell id="_s_XrGSySmN9xmIywYtK-114" value="Classname" style="swimlane;fontStyle=1;align=center;verticalAlign=top;childLayout=stackLayout;horizontal=1;startSize=26;horizontalStack=0;resizeParent=1;resizeParentMax=0;resizeLast=0;collapsible=1;marginBottom=0;whiteSpace=wrap;html=1;" vertex="1" parent="WIyWlLk6GJQsqaUBKTNV-1">
          <mxGeometry x="1520" y="3410" width="160" height="112" as="geometry" />
        </mxCell>
        <mxCell id="_s_XrGSySmN9xmIywYtK-115" value="+ field: type" style="text;strokeColor=none;fillColor=none;align=left;verticalAlign=top;spacingLeft=4;spacingRight=4;overflow=hidden;rotatable=0;points=[[0,0.5],[1,0.5]];portConstraint=eastwest;whiteSpace=wrap;html=1;" vertex="1" parent="_s_XrGSySmN9xmIywYtK-114">
          <mxGeometry y="26" width="160" height="26" as="geometry" />
        </mxCell>
        <mxCell id="_s_XrGSySmN9xmIywYtK-116" value="" style="line;strokeWidth=1;fillColor=none;align=left;verticalAlign=middle;spacingTop=-1;spacingLeft=3;spacingRight=3;rotatable=0;labelPosition=right;points=[];portConstraint=eastwest;strokeColor=inherit;" vertex="1" parent="_s_XrGSySmN9xmIywYtK-114">
          <mxGeometry y="52" width="160" height="8" as="geometry" />
        </mxCell>
        <mxCell id="_s_XrGSySmN9xmIywYtK-121" value="+ item: attribute" style="text;strokeColor=none;fillColor=none;align=left;verticalAlign=top;spacingLeft=4;spacingRight=4;overflow=hidden;rotatable=0;points=[[0,0.5],[1,0.5]];portConstraint=eastwest;whiteSpace=wrap;html=1;" vertex="1" parent="_s_XrGSySmN9xmIywYtK-114">
          <mxGeometry y="60" width="160" height="26" as="geometry" />
        </mxCell>
        <mxCell id="_s_XrGSySmN9xmIywYtK-117" value="+ method(type): type" style="text;strokeColor=none;fillColor=none;align=left;verticalAlign=top;spacingLeft=4;spacingRight=4;overflow=hidden;rotatable=0;points=[[0,0.5],[1,0.5]];portConstraint=eastwest;whiteSpace=wrap;html=1;" vertex="1" parent="_s_XrGSySmN9xmIywYtK-114">
          <mxGeometry y="86" width="160" height="26" as="geometry" />
        </mxCell>
        <mxCell id="_s_XrGSySmN9xmIywYtK-118" value="" style="endArrow=block;endSize=16;endFill=0;html=1;rounded=0;" edge="1" parent="WIyWlLk6GJQsqaUBKTNV-1">
          <mxGeometry width="160" relative="1" as="geometry">
            <mxPoint x="1670" y="3700" as="sourcePoint" />
            <mxPoint x="1830" y="3700" as="targetPoint" />
          </mxGeometry>
        </mxCell>
        <mxCell id="_s_XrGSySmN9xmIywYtK-119" value="" style="endArrow=block;dashed=1;endFill=0;endSize=12;html=1;rounded=0;exitX=0.445;exitY=0.952;exitDx=0;exitDy=0;exitPerimeter=0;entryX=0.439;entryY=0.014;entryDx=0;entryDy=0;entryPerimeter=0;" edge="1" parent="WIyWlLk6GJQsqaUBKTNV-1">
          <mxGeometry width="160" relative="1" as="geometry">
            <mxPoint x="1591" y="3320" as="sourcePoint" />
            <mxPoint x="1590" y="3411" as="targetPoint" />
          </mxGeometry>
        </mxCell>
        <mxCell id="_s_XrGSySmN9xmIywYtK-120" value="" style="endArrow=block;dashed=1;endFill=0;endSize=12;html=1;rounded=0;exitX=0.445;exitY=0.952;exitDx=0;exitDy=0;exitPerimeter=0;entryX=0.43;entryY=-0.018;entryDx=0;entryDy=0;entryPerimeter=0;" edge="1" parent="WIyWlLk6GJQsqaUBKTNV-1" target="_s_XrGSySmN9xmIywYtK-68">
          <mxGeometry width="160" relative="1" as="geometry">
            <mxPoint x="1591" y="3500" as="sourcePoint" />
            <mxPoint x="1590" y="3591" as="targetPoint" />
          </mxGeometry>
        </mxCell>
      </root>
    </mxGraphModel>
  </diagram>
</mxfile>
